<?xml version="1.0" standalone="no"?>
<!DOCTYPE svg PUBLIC "-//W3C//DTD SVG 20010904//EN"
 "http://www.w3.org/TR/2001/REC-SVG-20010904/DTD/svg10.dtd">
<svg version="1.0" xmlns="http://www.w3.org/2000/svg"
 width="626.000000pt" height="626.000000pt" viewBox="0 0 626.000000 626.000000"
 preserveAspectRatio="xMidYMid meet">
<metadata>
Created by potrace 1.14, written by Peter Selinger 2001-2017
</metadata>
<g transform="translate(0.000000,626.000000) scale(0.100000,-0.100000)"
fill="#000000" stroke="none">
<path d="M2672 5218 c-7 -7 -12 -25 -12 -41 0 -34 80 -123 146 -162 48 -28 67
-57 85 -129 16 -62 52 -106 89 -106 113 0 28 225 -137 365 -92 78 -144 100
-171 73z m92 -48 c26 -17 44 -35 41 -40 -3 -5 0 -7 9 -4 19 7 107 -99 147
-178 31 -60 43 -138 24 -145 -23 -8 -46 26 -66 97 -24 87 -30 95 -129 168 -83
60 -109 88 -110 115 0 26 30 21 84 -13z"/>
<path d="M3145 4991 c-65 -39 -81 -103 -48 -194 30 -83 74 -81 88 3 4 24 21
57 41 81 38 46 44 87 16 112 -24 22 -60 21 -97 -2z m69 -7 c24 -9 19 -34 -17
-89 -19 -28 -37 -67 -41 -87 -9 -49 -20 -48 -40 2 -30 75 -13 134 46 163 39
20 33 18 52 11z"/>
<path d="M2870 4742 c-32 -26 -30 -80 4 -109 28 -24 86 -39 111 -29 39 15 0
127 -51 146 -34 13 -38 13 -64 -8z m59 -31 c11 -11 27 -33 35 -50 19 -35 8
-46 -32 -36 -41 10 -62 34 -62 72 0 26 4 33 20 33 11 0 29 -9 39 -19z"/>
<path d="M3618 4741 c-31 -10 -69 -27 -85 -38 -20 -14 -35 -18 -53 -12 -46 13
-118 9 -183 -11 -77 -24 -153 -87 -182 -150 -13 -28 -23 -39 -33 -35 -76 29
-158 27 -244 -5 -39 -15 -48 -16 -48 -4 0 28 -70 92 -118 109 -130 44 -370 17
-517 -58 -29 -15 -55 -20 -97 -18 -86 3 -135 -15 -200 -79 -31 -30 -75 -67
-97 -83 -53 -37 -84 -103 -84 -177 1 -72 23 -120 79 -169 24 -21 44 -45 44
-54 0 -53 -188 -68 -360 -27 -136 32 -239 32 -310 -1 -161 -75 -260 -246 -355
-614 -115 -444 -49 -642 310 -927 43 -35 90 -78 102 -97 36 -53 31 -120 -17
-240 -46 -113 -48 -139 -19 -190 26 -47 67 -74 175 -117 400 -157 1083 -315
1236 -286 109 21 127 57 168 333 49 333 94 566 235 1219 19 91 35 168 35 171
0 4 13 12 29 19 59 24 112 107 126 196 7 38 8 40 39 36 32 -4 66 19 93 64 11
18 12 18 12 -2 1 -12 21 -126 45 -255 91 -480 153 -907 181 -1237 18 -207 30
-261 73 -305 46 -48 111 -60 254 -47 367 34 950 170 1147 268 124 62 137 119
71 313 -22 65 -40 125 -40 134 0 32 34 66 134 132 140 93 262 216 310 313 72
147 80 294 30 552 -54 276 -124 453 -220 557 -104 113 -192 134 -413 96 -177
-30 -311 -10 -311 46 0 11 16 34 37 52 111 97 93 269 -37 360 -85 59 -223 91
-333 77 -49 -7 -54 -6 -89 26 -43 38 -86 49 -169 41 -51 -4 -59 -3 -64 14 -11
32 -56 79 -97 100 -57 29 -122 33 -190 10z m168 -42 c48 -23 82 -69 91 -124 3
-19 7 -35 8 -35 2 0 22 9 46 20 76 34 163 18 207 -38 10 -13 35 -16 140 -17
146 -1 195 -15 261 -72 54 -46 81 -99 81 -160 -1 -76 -32 -113 -145 -171 -146
-76 -157 -121 -71 -293 68 -135 82 -199 68 -293 -13 -87 -36 -120 -86 -124
-25 -2 -36 0 -31 7 3 6 0 9 -8 5 -24 -9 -39 55 -32 133 13 131 -31 264 -107
325 -34 27 -52 33 -104 36 -58 4 -67 1 -121 -32 -68 -42 -84 -43 -155 -15 -59
23 -143 28 -177 9 -35 -18 -59 -85 -66 -185 -8 -110 -20 -152 -53 -187 -32
-35 -71 -43 -115 -24 -39 16 -95 85 -104 128 -6 31 -27 53 -41 44 -6 -3 -13
-27 -17 -53 -14 -93 -49 -126 -109 -103 -36 13 -46 6 -46 -34 0 -103 -67 -206
-135 -206 -96 0 -161 95 -199 290 -9 47 -19 95 -22 107 -2 14 -18 28 -38 37
-27 11 -37 24 -51 65 -29 89 -80 110 -170 70 -54 -24 -105 -21 -137 8 -10 9
-35 48 -55 85 -63 120 -106 137 -282 114 -160 -22 -214 -7 -268 74 -50 72 -19
206 58 257 21 14 50 40 64 59 45 59 140 93 206 74 25 -7 41 -5 78 14 25 13 84
36 131 52 73 24 102 28 205 28 114 1 123 0 180 -29 49 -25 64 -38 83 -76 l23
-46 41 20 c26 13 68 22 117 25 65 4 85 0 139 -21 55 -23 62 -24 62 -9 1 138
180 252 335 213 43 -11 48 -10 80 15 74 56 168 69 241 33z m721 -801 c-2 -13
-4 -5 -4 17 -1 22 1 32 4 23 2 -10 2 -28 0 -40z m-2462 32 c-3 -5 -14 -10 -23
-9 -14 0 -13 2 3 9 27 11 27 11 20 0z m-52 -30 c-3 -11 -9 -20 -14 -20 -4 0
-1 -12 7 -27 7 -16 14 -54 14 -85 0 -45 3 -58 15 -58 8 0 15 -8 15 -17 0 -10
3 -29 7 -42 5 -21 3 -23 -19 -19 -25 5 -26 3 -32 -61 -3 -36 -2 -69 3 -74 4
-4 21 22 36 60 15 37 31 75 36 83 5 8 14 27 20 42 6 14 17 29 26 32 12 5 14
16 9 49 l-6 42 16 -35 c9 -19 18 -29 21 -22 3 6 9 12 14 12 6 0 7 -4 4 -10 -4
-6 10 -10 35 -10 45 0 140 -27 140 -40 0 -5 -10 -10 -22 -12 -17 -2 -23 -10
-23 -28 0 -20 6 -26 28 -28 22 -3 27 1 27 17 0 12 6 21 14 21 7 0 19 7 26 15
8 10 29 14 64 13 28 -1 44 -3 35 -5 -14 -3 -12 -15 13 -86 16 -45 27 -91 23
-104 -3 -12 -1 -25 5 -28 6 -4 10 6 10 22 0 30 16 53 35 53 15 0 35 -44 34
-73 0 -20 -1 -20 -8 -3 -6 17 -9 17 -23 3 -9 -9 -18 -14 -21 -11 -3 3 -3 -3 0
-14 2 -11 0 -23 -6 -26 -18 -11 -13 -26 8 -26 23 0 34 -28 26 -62 -7 -27 24
-65 32 -40 3 6 8 12 13 12 12 0 -13 -50 -25 -50 -5 0 -82 -9 -169 -20 -112
-14 -220 -20 -363 -20 -112 0 -203 -2 -203 -4 0 -10 -123 -383 -166 -501 -115
-323 -204 -592 -202 -609 2 -11 11 -20 21 -22 21 -3 33 -12 25 -19 -2 -3 -49
13 -102 36 -101 42 -128 44 -85 6 14 -12 20 -19 14 -15 -7 4 -15 5 -18 1 -4
-3 -13 9 -21 27 -9 21 -15 28 -19 19 -12 -29 -6 27 7 70 l13 45 6 -32 c4 -18
6 -35 4 -38 -1 -3 6 -10 16 -15 9 -6 14 -16 11 -22 -4 -7 -4 -9 1 -5 4 4 29
-5 57 -19 27 -14 51 -23 54 -20 3 2 -9 9 -25 15 l-31 11 20 45 c10 25 28 74
39 108 117 377 160 518 212 699 54 190 68 249 98 394 5 22 13 52 19 68 8 18 8
35 2 53 -17 45 -12 71 14 78 20 5 27 16 36 64 17 78 39 150 62 195 10 21 16
42 12 48 -11 18 5 39 30 39 19 0 23 -4 19 -20z m3153 -10 c45 -34 88 -89 111
-142 14 -32 29 -55 33 -53 4 3 20 -30 35 -73 15 -42 31 -86 35 -97 16 -38 29
-111 36 -193 4 -45 11 -85 15 -88 5 -3 8 -22 8 -42 l-2 -37 -7 40 c-7 40 -7
39 -9 -15 -1 -30 -7 -83 -14 -117 -8 -34 -10 -68 -5 -75 5 -9 8 -7 8 6 0 11 2
17 5 14 8 -8 -5 -59 -14 -54 -3 2 -7 -10 -7 -27 -1 -17 -6 -33 -13 -35 -6 -2
-11 -10 -11 -17 0 -37 -154 -215 -198 -229 -12 -4 -22 -11 -22 -16 0 -8 -106
-62 -146 -74 -17 -5 -23 -1 -28 16 -13 50 -8 58 32 58 55 0 151 51 203 108 64
71 119 150 119 173 0 10 5 19 10 19 6 0 10 11 10 25 0 14 4 25 8 25 16 0 7
320 -11 390 -47 190 -122 351 -199 431 -18 19 -33 40 -33 47 0 8 -15 20 -33
27 -17 8 -32 10 -32 5 0 -5 9 -12 21 -15 11 -4 19 -8 17 -10 -2 -2 -22 2 -43
10 -22 8 -69 15 -105 16 l-65 2 74 8 c41 5 75 10 77 12 9 8 124 -10 140 -23z
m-526 -12 l0 -22 16 23 c15 21 21 22 88 17 39 -3 85 -5 101 -6 22 0 8 -8 -55
-31 -47 -16 -93 -30 -103 -30 -9 0 -15 -4 -12 -8 2 -5 -2 -14 -10 -21 -11 -9
-16 -4 -25 30 -6 23 -14 48 -17 56 -3 8 0 14 6 14 6 0 11 -10 11 -22z m-3187
-9 c55 -14 118 -21 189 -22 58 -1 101 -5 95 -9 -23 -15 -169 -8 -257 12 -50
11 -121 24 -158 29 l-67 8 58 2 c32 0 95 -8 140 -20z m625 -11 c-4 -29 -35
-35 -53 -11 -21 26 -19 29 21 31 32 2 35 0 32 -20z m19 0 c-3 -8 -6 -5 -6 6
-1 11 2 17 5 13 3 -3 4 -12 1 -19z m-250 -10 c-3 -8 -6 -5 -6 6 -1 11 2 17 5
13 3 -3 4 -12 1 -19z m2703 -4 c0 -8 -4 -12 -10 -9 -5 3 -10 13 -10 21 0 8 5
12 10 9 6 -3 10 -13 10 -21z m-341 -21 c61 -46 95 -138 89 -245 l-3 -53 -120
-3 c-111 -2 -370 20 -383 33 -4 3 -1 15 6 25 16 27 16 93 0 87 -8 -2 -12 -15
-10 -30 2 -15 -3 -34 -12 -42 -16 -17 -30 -20 -21 -6 3 5 1 12 -5 16 -5 3 -10
17 -10 31 0 14 4 23 10 19 14 -9 40 20 40 44 0 11 5 23 10 26 6 3 10 14 10 23
-1 15 -3 14 -17 -3 -14 -17 -15 -18 -9 -2 3 10 2 27 -4 37 -8 15 -5 20 21 29
22 8 37 8 52 -1 34 -18 120 -15 151 6 71 46 149 50 205 9z m-2781 1 c50 -3 92
-10 92 -14 0 -5 15 -12 33 -16 28 -6 29 -8 12 -14 -14 -6 -9 -7 18 -7 46 1 47
11 5 25 -31 11 -31 11 12 5 25 -3 76 -5 113 -5 51 1 68 -2 64 -11 -2 -6 -15
-47 -27 -90 -13 -43 -26 -74 -29 -68 -17 26 -123 84 -199 107 -137 42 -253 35
-309 -18 -13 -12 -23 -16 -23 -10 0 7 21 26 47 42 26 17 40 30 32 30 -39 0
-128 -104 -198 -232 -71 -130 -131 -370 -131 -527 0 -58 -5 -67 -32 -62 -5 0
-9 -23 -9 -52 l-2 -52 -13 75 c-7 41 -12 104 -12 140 1 58 2 61 8 25 6 -31 7
-19 8 50 0 50 3 99 6 110 2 11 5 31 5 45 1 18 4 21 10 12 6 -10 10 -9 14 7 3
14 1 19 -6 15 -8 -5 -7 -2 1 7 6 7 12 20 12 28 0 9 7 29 15 45 9 16 13 36 10
43 -2 8 0 11 5 8 10 -6 14 13 10 49 -1 10 3 15 9 12 6 -4 13 5 17 21 10 47 26
83 34 78 4 -3 11 2 14 11 4 10 2 13 -7 8 -6 -4 0 4 16 19 15 14 27 31 27 37 0
17 53 70 70 70 8 0 22 5 30 11 12 8 9 9 -10 4 l-25 -6 23 20 c17 15 32 19 55
15 23 -4 28 -3 18 4 -11 8 -8 11 15 15 16 2 40 3 54 1 14 -2 67 -6 118 -10z
m409 -16 c-3 -8 -6 -5 -6 6 -1 11 2 17 5 13 3 -3 4 -12 1 -19z m1973 18 c0 -2
-9 -6 -20 -9 -11 -3 -18 -1 -14 4 5 9 34 13 34 5z m-1692 -28 c-2 -16 -11 -24
-29 -26 -22 -3 -26 1 -24 20 3 30 1 28 31 28 21 0 25 -4 22 -22z m-299 -64
c-7 -27 -16 -57 -21 -67 -8 -16 -7 -18 12 -12 16 5 21 3 18 -6 -3 -8 -14 -15
-26 -17 -12 -2 -22 -6 -22 -10 -12 -160 -27 -231 -49 -218 -9 6 -21 -16 -21
-37 0 -7 4 -6 10 3 11 17 13 9 4 -15 -5 -13 -8 -14 -15 -3 -6 9 -9 4 -10 -17
-1 -16 -3 -36 -3 -44 -1 -8 -7 -16 -15 -19 -9 -3 -11 1 -7 14 3 11 19 64 37
119 17 55 46 156 66 225 47 168 45 161 50 157 2 -3 -1 -26 -8 -53z m1942 -7
c-13 -13 -15 1 -4 30 7 17 8 17 11 -1 2 -10 -1 -23 -7 -29z m806 11 c-3 -7 -5
-2 -5 12 0 14 2 19 5 13 2 -7 2 -19 0 -25z m476 18 c18 -7 44 -26 59 -42 40
-43 95 -169 125 -291 23 -92 27 -128 27 -248 0 -122 -3 -148 -24 -200 -51
-132 -128 -201 -248 -223 -36 -6 -55 -6 -61 2 -14 16 -80 252 -165 585 -72
281 -75 296 -60 326 19 41 71 70 159 88 90 20 147 20 188 3z m-2930 -13 c-7
-2 -13 -13 -13 -24 0 -12 -7 -19 -20 -19 -15 0 -20 7 -20 25 0 22 4 25 33 24
17 0 26 -3 20 -6z m-720 -10 c-7 -2 -19 -2 -25 0 -7 3 -2 5 12 5 14 0 19 -2
13 -5z m54 -9 c-3 -3 -12 -4 -19 -1 -8 3 -5 6 6 6 11 1 17 -2 13 -5z m1046 -1
c-7 -2 -21 -2 -30 0 -10 3 -4 5 12 5 17 0 24 -2 18 -5z m1284 -25 c-3 -8 -6
-5 -6 6 -1 11 2 17 5 13 3 -3 4 -12 1 -19z m-2250 6 c-3 -3 -12 -4 -19 -1 -8
3 -5 6 6 6 11 1 17 -2 13 -5z m73 -24 c8 -5 11 -10 5 -10 -5 0 -17 5 -25 10
-8 5 -10 10 -5 10 6 0 17 -5 25 -10z m266 0 c25 -10 26 -12 12 -27 -19 -18
-33 -12 -41 17 -6 23 -7 23 29 10z m2721 -12 c-3 -8 -6 -5 -6 6 -1 11 2 17 5
13 3 -3 4 -12 1 -19z m-3072 -17 c101 -30 135 -49 168 -93 19 -26 20 -28 2
-89 -47 -168 -239 -755 -266 -813 -12 -26 -17 -28 -55 -23 -95 10 -210 87
-261 175 -88 149 -61 466 59 707 85 171 151 196 353 136z m3093 -66 c0 -16 -2
-15 -8 5 -4 14 -8 34 -8 45 0 16 2 15 8 -5 4 -14 8 -34 8 -45z m-2741 29 c6
-16 -15 -37 -29 -28 -4 3 -8 14 -8 25 0 23 28 26 37 3z m1903 -104 c0 -13 -7
-20 -20 -20 -13 0 -20 7 -20 20 0 13 7 20 20 20 13 0 20 -7 20 -20z m90 0 c0
-5 -4 -10 -10 -10 -5 0 -10 5 -10 10 0 6 5 10 10 10 6 0 10 -4 10 -10z m-2043
-50 c-2 -35 -8 -37 -25 -10 -14 23 -8 40 13 40 10 0 13 -10 12 -30z m1983 -4
c0 -8 -4 -17 -9 -21 -12 -7 -24 12 -16 25 9 15 25 12 25 -4z m313 -51 c1 -5
-6 -11 -15 -13 -11 -2 -18 3 -18 13 0 17 30 18 33 0z m-642 -153 c12 -59 22
-124 22 -144 0 -21 3 -36 6 -33 6 3 62 -301 61 -330 0 -5 -4 -4 -9 4 -6 9 -11
10 -15 2 -4 -6 -2 -11 3 -11 6 0 12 -23 13 -52 l1 -53 6 50 c6 54 4 65 37
-190 4 -30 3 -36 -5 -25 -9 12 -11 9 -11 -14 0 -20 4 -27 14 -23 11 5 16 -15
22 -101 4 -59 8 -122 8 -139 0 -18 3 -33 7 -33 4 0 10 -13 14 -29 3 -16 14
-32 23 -36 15 -6 15 -8 -3 -15 -19 -8 -19 -9 3 -9 12 -1 22 -5 22 -9 0 -5 6
-9 13 -10 43 -5 77 -16 77 -23 0 -5 5 -9 11 -9 5 0 8 4 5 9 -4 5 -2 11 3 13
18 6 -35 306 -179 1018 -28 134 -50 251 -50 260 0 29 40 -45 60 -110 98 -329
189 -792 215 -1104 l7 -79 59 7 c33 3 106 15 162 27 60 12 116 18 135 14 19
-3 32 -8 30 -10 -3 -3 -282 -37 -424 -51 -43 -4 -53 -9 -63 -31 -6 -14 -9 -28
-6 -31 3 -4 8 3 11 14 5 18 13 19 142 16 75 -2 147 -8 159 -14 11 -6 53 -9 92
-6 60 3 71 1 71 -12 0 -30 -23 -40 -91 -40 -63 0 -66 1 -75 28 -8 25 -12 27
-44 21 l-35 -6 33 -2 c34 -1 43 -15 16 -25 -9 -3 -34 -6 -57 -6 -51 0 -87 -9
-87 -22 0 -5 6 -8 13 -6 6 1 33 -3 58 -11 38 -11 54 -10 102 2 31 8 57 11 57
7 0 -5 -3 -10 -7 -13 -5 -2 -2 -2 5 0 8 1 21 3 30 4 14 0 13 2 -3 9 -16 7 -11
9 20 8 22 0 58 3 80 7 70 13 33 -2 -60 -25 -109 -27 -195 -58 -195 -71 0 -17
48 -21 125 -9 42 6 79 10 81 8 2 -3 -36 -12 -84 -22 -105 -21 -285 -33 -262
-17 8 6 35 11 59 11 74 0 40 10 -39 11 -41 1 -75 -3 -79 -9 -4 -7 -12 -8 -21
-2 -13 8 -13 10 -1 10 13 0 13 2 2 12 -11 10 -14 10 -18 1 -6 -16 -63 12 -62
30 0 9 2 9 6 -1 2 -6 9 -10 14 -6 5 3 9 0 9 -7 0 -9 3 -9 14 0 8 7 12 21 9 33
-6 19 -7 19 -16 2 -9 -16 -11 -16 -24 2 -12 16 -15 17 -23 4 -8 -12 -14 -10
-35 15 -28 35 -28 36 -50 255 -19 193 -35 312 -76 580 -27 169 -100 594 -114
657 -5 21 -4 21 24 7 26 -13 30 -24 52 -122z m-1667 119 c4 -5 2 -19 -2 -32
-6 -15 -11 -18 -16 -11 -4 7 -12 10 -17 7 -5 -4 -9 5 -9 19 0 19 5 26 19 26
11 0 22 -4 25 -9z m2064 -59 c2 -7 -3 -12 -12 -12 -9 0 -16 7 -16 16 0 17 22
14 28 -4z m652 -11 c23 -43 1 -111 -36 -111 -17 0 -37 37 -28 52 4 6 3 8 -3 5
-6 -4 -14 0 -17 9 -9 24 -8 31 10 48 21 22 61 20 74 -3z m-2743 -47 c-3 -3
-12 -4 -19 -1 -8 3 -5 6 6 6 11 1 17 -2 13 -5z m958 -79 c0 -22 -31 -33 -47
-17 -17 17 -1 44 24 40 15 -2 23 -10 23 -23z m214 -17 c-1 -13 -4 -34 -8 -48
l-7 -25 -6 27 c-3 17 -1 25 5 21 6 -4 7 4 3 21 -4 15 -2 26 4 26 5 0 10 -10 9
-22z m1191 2 c0 -5 -4 -10 -10 -10 -5 0 -10 5 -10 10 0 6 5 10 10 10 6 0 10
-4 10 -10z m100 -16 c11 -12 10 -18 -4 -32 -16 -16 -18 -16 -31 2 -11 14 -12
23 -4 33 15 17 24 16 39 -3z m-1584 -35 c10 -17 -13 -36 -27 -22 -12 12 -4 33
11 33 5 0 12 -5 16 -11z m236 -203 c-27 -123 -39 -162 -44 -144 -6 17 -6 13
-4 -12 3 -19 -17 -145 -44 -280 -27 -135 -57 -295 -66 -357 -10 -61 -23 -109
-28 -106 -5 4 -6 1 -1 -6 4 -7 -3 -76 -16 -153 -18 -109 -26 -141 -41 -149
-10 -5 -18 -16 -18 -24 0 -8 -10 -20 -22 -26 -13 -7 -29 -18 -37 -26 -7 -8
-20 -12 -29 -8 -19 7 -54 -4 -47 -15 6 -9 -44 -20 -96 -20 -32 0 -39 3 -39 20
0 11 -5 20 -11 20 -6 0 -9 -9 -6 -20 3 -13 0 -20 -9 -20 -8 0 -14 10 -14 23
-1 21 -1 21 -14 4 -14 -18 -17 -18 -83 -1 -88 21 -93 27 -17 19 42 -5 64 -4
68 4 4 6 12 9 17 6 5 -4 9 1 9 9 0 17 -17 30 -22 17 -1 -5 -21 -2 -42 7 -34
13 -37 17 -20 24 13 6 10 6 -11 3 -18 -3 -66 6 -120 23 -49 16 -141 42 -202
58 -78 20 -107 31 -95 37 11 4 7 5 -11 2 -15 -3 -62 4 -105 14 -43 11 -103 23
-135 27 -53 6 -57 9 -58 33 -1 25 -2 25 -8 -4 -8 -34 -14 -34 -83 -3 -55 25
-66 51 -41 102 13 29 14 38 3 51 -7 8 -16 15 -21 15 -12 0 -11 -44 1 -56 5 -5
6 -15 0 -24 -7 -11 -10 -8 -16 14 -7 30 -1 123 10 133 10 10 57 -39 52 -54 -6
-16 10 -27 19 -12 4 5 13 8 21 5 8 -3 11 0 8 8 -3 7 36 -8 85 -32 50 -25 88
-49 85 -54 -3 -5 -16 -2 -29 6 -25 17 -39 9 -25 -13 5 -9 18 -12 39 -8 16 4
33 2 36 -3 3 -6 11 -10 17 -10 7 0 7 5 -1 14 -8 10 5 8 45 -7 46 -17 53 -22
38 -29 -15 -7 -14 -7 6 -4 13 3 83 -12 155 -33 153 -46 263 -66 436 -81 123
-10 209 -6 209 11 0 5 -22 11 -50 15 -27 4 -50 11 -50 15 0 8 28 5 66 -6 28
-8 115 28 136 55 12 16 26 26 31 23 6 -3 7 -1 3 5 -4 7 -4 18 1 25 12 19 32
98 33 132 l1 30 13 -24 c12 -22 13 -22 19 23 4 29 2 54 -5 65 -9 15 -5 48 16
157 48 240 59 282 66 254 5 -21 8 -16 17 27 5 29 6 50 1 47 -4 -3 -8 -15 -9
-27 0 -12 -3 -17 -5 -11 -6 14 44 236 54 244 4 3 7 13 8 23 0 9 2 27 3 40 2
21 3 21 12 2 8 -16 9 -14 5 11 -6 36 16 118 28 107 5 -4 6 3 3 16 -4 15 -2 20
3 15 6 -6 -5 -74 -28 -178z m-591 141 c-13 -13 -26 -3 -16 12 3 6 11 8 17 5 6
-4 6 -10 -1 -17z m1989 13 c0 -5 -4 -10 -10 -10 -5 0 -10 5 -10 10 0 6 5 10
10 10 6 0 10 -4 10 -10z m-52 -33 c4 -20 -25 -34 -40 -19 -15 15 -1 44 19 40
10 -2 19 -11 21 -21z m-1852 -32 c6 -14 -11 -45 -25 -45 -19 1 -32 20 -26 39
7 24 43 29 51 6z m274 -45 c0 -5 -4 -10 -10 -10 -5 0 -10 5 -10 10 0 6 5 10
10 10 6 0 10 -4 10 -10z m1668 -1 c-2 -6 -8 -10 -13 -10 -5 0 -11 4 -13 10 -2
6 4 11 13 11 9 0 15 -5 13 -11z m-3369 -69 c1 -28 83 -196 91 -189 4 2 25 -12
48 -32 84 -72 228 -126 240 -91 2 7 15 12 28 12 27 0 32 -21 11 -42 -8 -7 -12
-20 -10 -28 3 -10 2 -11 -4 -4 -12 16 -51 24 -56 10 -3 -8 -9 -7 -21 3 -22 19
-32 7 -18 -24 14 -31 35 -32 55 -2 14 19 16 20 16 4 1 -10 6 -15 11 -12 13 8
12 -5 -3 -33 l-13 -23 -81 43 c-45 23 -79 46 -76 52 4 5 -1 7 -10 3 -40 -15
-249 236 -249 300 0 13 -3 21 -7 19 -3 -2 -4 18 -2 46 2 37 6 48 17 44 8 -3
14 0 15 7 2 18 17 -35 18 -63z m1777 -116 c-48 -192 -104 -441 -133 -593 -9
-51 -19 -88 -21 -82 -6 19 60 390 93 524 25 100 98 338 102 333 2 -2 -16 -84
-41 -182z m-416 131 c15 -17 5 -35 -20 -35 -22 0 -33 23 -17 39 15 15 22 14
37 -4z m70 -5 c0 -5 -4 -10 -10 -10 -5 0 -10 5 -10 10 0 6 5 10 10 10 6 0 10
-4 10 -10z m1990 -121 c0 -12 -7 -19 -19 -19 -26 0 -36 17 -21 35 15 18 40 8
40 -16z m-2010 -4 c0 -8 -7 -15 -15 -15 -8 0 -15 7 -15 15 0 8 7 15 15 15 8 0
15 -7 15 -15z m1917 -81 c7 -18 -17 -38 -31 -24 -11 11 -1 40 14 40 6 0 13 -7
17 -16z m-1959 -107 c4 -21 -25 -34 -40 -19 -8 8 -8 16 2 27 16 19 34 15 38
-8z m-130 -54 c-5 -26 -38 -29 -38 -4 0 15 6 21 21 21 14 0 19 -5 17 -17z
m2178 6 c3 -6 0 -17 -7 -25 -18 -17 -44 -2 -36 20 7 18 33 21 43 5z m535 -213
c-6 -6 -8 -23 -4 -37 5 -23 5 -23 -9 -5 -13 16 -13 23 -2 45 8 14 15 40 16 56
1 25 2 24 5 -8 3 -21 0 -44 -6 -51z m-2711 15 c0 -26 -17 -36 -35 -21 -18 15
-8 40 16 40 12 0 19 -7 19 -19z m2185 -10 c7 -12 -12 -24 -25 -16 -11 7 -4 25
10 25 5 0 11 -4 15 -9z m498 -62 c7 0 -13 -9 -42 -20 -37 -13 -58 -16 -65 -9
-7 7 -1 10 17 10 14 0 32 7 39 15 7 8 19 12 26 10 8 -3 19 -5 25 -6z m37 -31
c0 -10 2 -10 9 0 7 11 10 10 15 -3 10 -28 7 -135 -5 -135 -5 0 -8 -4 -5 -8 3
-5 -2 -19 -11 -31 -12 -18 -17 -20 -24 -10 -7 11 -9 10 -9 -3 0 -26 -66 -51
-127 -49 -57 2 -178 -17 -342 -54 -130 -30 -138 -30 -116 -9 15 15 15 18 -1
35 -15 17 -15 19 -1 19 9 0 18 -4 21 -9 4 -5 19 -3 36 6 17 8 50 15 74 16 25
1 42 4 40 6 -3 3 6 11 18 18 21 11 22 12 3 13 -17 0 -18 2 -5 11 12 9 12 10
-3 5 -10 -3 -24 -6 -30 -6 -7 0 -6 -5 3 -11 11 -7 4 -8 -25 -3 -22 4 -41 8
-43 9 -7 6 139 34 155 29 14 -5 15 -4 3 4 -11 8 -4 13 33 22 25 7 49 11 53 10
4 -1 10 2 13 7 3 4 36 20 72 35 36 14 92 42 125 62 65 39 74 42 74 24z m-180
-26 c-19 -8 -45 -15 -57 -16 -13 0 -23 -5 -23 -10 0 -4 -6 -6 -14 -3 -8 3 -16
2 -18 -2 -3 -9 -169 -59 -286 -87 -53 -12 -78 -14 -95 -7 -21 10 -21 11 8 17
17 4 46 11 65 16 19 5 58 12 85 15 83 9 110 16 113 26 2 5 14 9 27 9 13 0 26
4 30 10 3 5 13 6 21 3 9 -3 19 -1 23 5 4 7 20 13 37 14 16 1 39 8 51 16 12 7
27 11 33 7 5 -3 10 -1 10 5 0 6 5 8 12 4 8 -5 0 -13 -22 -22z m-2033 -69 c-3
-10 -5 -4 -5 12 0 17 2 24 5 18 2 -7 2 -21 0 -30z m-605 -15 c-15 -15 -26 -4
-18 18 5 13 9 15 18 6 9 -9 9 -15 0 -24z m473 -103 c-4 -25 -9 -44 -12 -41 -2
2 -1 25 2 51 4 25 9 44 12 41 2 -2 1 -25 -2 -51z m-917 25 c20 -11 54 -23 75
-26 20 -4 37 -10 37 -14 0 -4 12 -7 27 -7 15 0 29 -5 31 -11 2 -6 10 -8 19 -5
12 5 14 3 8 -7 -6 -10 -3 -12 15 -7 12 3 34 1 49 -5 14 -6 30 -10 35 -9 5 1
12 -3 16 -9 3 -5 24 -12 46 -14 21 -2 75 -11 119 -21 44 -10 125 -25 180 -35
55 -10 91 -18 80 -19 -27 -1 -301 45 -392 66 -40 9 -73 20 -73 25 0 4 -6 5
-14 2 -13 -5 -230 65 -306 99 -29 13 -31 16 -12 16 12 1 39 -8 60 -19z m-311
-25 c0 -8 -4 -15 -9 -15 -10 0 -11 14 -1 23 9 10 10 9 10 -8z m3072 5 c55 0 6
-13 -61 -16 -40 -1 -89 -6 -108 -9 -19 -3 -71 -7 -115 -10 l-80 -4 75 9 c41 5
109 16 150 24 41 7 84 12 95 10 11 -2 31 -4 44 -4z m-1862 -102 c-3 -8 -6 -5
-6 6 -1 11 2 17 5 13 3 -3 4 -12 1 -19z m1770 -84 c-3 -3 -12 -4 -19 -1 -8 3
-5 6 6 6 11 1 17 -2 13 -5z m-50 -10 c-3 -3 -12 -4 -19 -1 -8 3 -5 6 6 6 11 1
17 -2 13 -5z m-44 -11 c-7 -2 -19 -2 -25 0 -7 3 -2 5 12 5 14 0 19 -2 13 -5z
m-416 -39 c-3 -3 -12 -4 -19 -1 -8 3 -5 6 6 6 11 1 17 -2 13 -5z m-1850 -100
c-3 -3 -12 -4 -19 -1 -8 3 -5 6 6 6 11 1 17 -2 13 -5z m108 -24 c13 -5 14 -9
5 -9 -8 0 -24 4 -35 9 -13 5 -14 9 -5 9 8 0 24 -4 35 -9z m58 -17 c-7 -2 -19
-2 -25 0 -7 3 -2 5 12 5 14 0 19 -2 13 -5z"/>
<path d="M3006 4401 c-12 -4 15 -11 75 -20 144 -19 242 -72 275 -148 20 -46
17 -117 -6 -163 -25 -49 -25 -50 5 -48 13 1 22 4 20 7 -3 2 5 17 17 34 29 40
35 116 14 170 -18 47 -67 103 -113 129 -68 39 -231 61 -287 39z"/>
<path d="M4337 4393 c-3 -5 17 -17 44 -26 52 -19 79 -53 79 -102 0 -30 -21
-75 -44 -94 -22 -19 -20 -41 4 -41 30 0 67 41 79 88 15 54 -3 106 -50 144 -36
29 -102 48 -112 31z"/>
<path d="M3205 3859 c31 -88 13 -155 -59 -215 -63 -52 -63 -77 1 -53 65 24
114 101 115 180 0 55 -29 122 -55 127 -15 3 -15 0 -2 -39z"/>
<path d="M2305 3580 c-4 -6 -3 -16 3 -22 6 -6 12 -6 17 2 4 6 3 16 -3 22 -6 6
-12 6 -17 -2z"/>
<path d="M2206 3561 c-9 -14 5 -42 18 -38 18 6 20 47 2 47 -8 0 -17 -4 -20 -9z"/>
<path d="M2407 3534 c-16 -16 -7 -44 14 -44 15 0 20 5 17 22 -3 22 -19 33 -31
22z"/>
<path d="M2246 3454 c-8 -21 1 -34 24 -34 22 0 33 23 17 39 -16 16 -34 14 -41
-5z"/>
<path d="M2420 3436 c0 -9 7 -16 16 -16 9 0 14 5 12 12 -6 18 -28 21 -28 4z"/>
<path d="M1961 3404 c0 -11 3 -14 6 -6 3 7 2 16 -1 19 -3 4 -6 -2 -5 -13z"/>
<path d="M1330 2189 c0 -11 4 -18 10 -14 5 3 7 12 3 20 -7 21 -13 19 -13 -6z"/>
<path d="M5120 3886 c0 -2 8 -10 18 -17 15 -13 16 -12 3 4 -13 16 -21 21 -21
13z"/>
<path d="M5357 3033 c-4 -3 -7 -11 -7 -17 0 -6 5 -5 12 2 6 6 9 14 7 17 -3 3
-9 2 -12 -2z"/>
<path d="M4750 3880 c0 -5 4 -10 9 -10 6 0 13 5 16 10 3 6 -1 10 -9 10 -9 0
-16 -4 -16 -10z"/>
<path d="M3806 3779 c3 -38 14 -51 14 -16 0 15 0 30 1 34 0 4 -3 9 -8 10 -5 2
-8 -11 -7 -28z"/>
<path d="M3850 3765 c0 -8 9 -15 20 -15 11 0 20 7 20 15 0 8 -9 15 -20 15 -11
0 -20 -7 -20 -15z"/>
<path d="M3885 3710 c-4 -6 -3 -16 3 -22 6 -6 12 -6 17 2 4 6 3 16 -3 22 -6 6
-12 6 -17 -2z"/>
<path d="M3871 3604 c0 -11 3 -14 6 -6 3 7 2 16 -1 19 -3 4 -6 -2 -5 -13z"/>
<path d="M1298 3803 c12 -2 32 -2 45 0 12 2 2 4 -23 4 -25 0 -35 -2 -22 -4z"/>
<path d="M1408 3803 c6 -2 18 -2 25 0 6 3 1 5 -13 5 -14 0 -19 -2 -12 -5z"/>
<path d="M1690 3778 c0 -4 7 -8 15 -8 8 0 15 4 15 8 0 5 -7 9 -15 9 -8 0 -15
-4 -15 -9z"/>
<path d="M1580 3753 c8 -3 34 -19 57 -34 23 -16 46 -29 52 -29 6 0 11 -8 12
-17 1 -10 7 2 15 26 8 25 12 47 9 49 -2 2 -9 -11 -14 -29 l-11 -34 5 33 c4 28
2 33 -13 30 -10 -2 -16 -11 -14 -21 4 -22 -1 -22 -48 8 -22 14 -45 25 -52 24
-8 0 -8 -3 2 -6z"/>
<path d="M1712 3430 c0 -14 2 -19 5 -12 2 6 2 18 0 25 -3 6 -5 1 -5 -13z"/>
<path d="M3403 3352 c-8 -5 -9 -18 -3 -42 4 -19 9 -28 10 -20 1 8 8 -1 16 -20
13 -32 14 -32 8 -5 -4 17 -10 44 -13 62 -4 21 -10 30 -18 25z"/>
<path d="M3472 3035 c0 -16 2 -22 5 -12 2 9 2 23 0 30 -3 6 -5 -1 -5 -18z"/>
<path d="M3492 2935 c0 -16 2 -22 5 -12 2 9 2 23 0 30 -3 6 -5 -1 -5 -18z"/>
<path d="M3466 2913 c10 -40 14 -41 14 -5 0 18 -5 32 -10 32 -6 0 -8 -11 -4
-27z"/>
<path d="M3498 2865 c2 -19 6 -35 8 -35 2 0 4 16 4 35 0 19 -4 35 -8 35 -4 0
-6 -16 -4 -35z"/>
<path d="M3510 2780 c0 -5 5 -10 10 -10 6 0 10 5 10 10 0 6 -4 10 -10 10 -5 0
-10 -4 -10 -10z"/>
<path d="M3549 2558 c4 -28 6 -29 9 -9 2 13 0 27 -5 32 -6 6 -7 -3 -4 -23z"/>
<path d="M3582 2300 c0 -14 2 -19 5 -12 2 6 2 18 0 25 -3 6 -5 1 -5 -13z"/>
<path d="M3600 2140 c0 -8 5 -22 10 -30 9 -13 10 -13 10 0 0 8 -5 22 -10 30
-9 13 -10 13 -10 0z"/>
<path d="M3586 2053 c8 -47 14 -55 14 -20 0 14 5 27 10 29 6 2 1 9 -10 16 -20
12 -21 11 -14 -25z"/>
<path d="M3860 1949 c0 -7 26 -19 41 -19 5 0 9 6 9 14 0 9 -10 13 -25 12 -14
0 -25 -4 -25 -7z"/>
<path d="M3701 1894 c0 -11 3 -14 6 -6 3 7 2 16 -1 19 -3 4 -6 -2 -5 -13z"/>
<path d="M3875 1830 c-3 -5 1 -10 9 -10 8 0 18 5 21 10 3 6 -1 10 -9 10 -8 0
-18 -4 -21 -10z"/>
<path d="M3928 1823 c7 -3 16 -2 19 1 4 3 -2 6 -13 5 -11 0 -14 -3 -6 -6z"/>
<path d="M3873 1803 c9 -2 25 -2 35 0 9 3 1 5 -18 5 -19 0 -27 -2 -17 -5z"/>
<path d="M2750 2443 c-30 -131 -39 -177 -35 -181 6 -7 23 57 50 196 10 50 -2
38 -15 -15z"/>
<path d="M2702 2215 c0 -16 2 -22 5 -12 2 9 2 23 0 30 -3 6 -5 -1 -5 -18z"/>
<path d="M1483 1982 c1 -14 5 -18 11 -12 7 7 6 14 -1 21 -9 9 -12 7 -10 -9z"/>
<path d="M2663 1925 c0 -22 2 -30 4 -17 2 12 2 30 0 40 -3 9 -5 -1 -4 -23z"/>
<path d="M1543 1886 c9 -18 24 -27 62 -34 27 -6 58 -14 68 -17 12 -5 17 -2 17
8 0 19 -54 47 -91 47 -15 0 -31 5 -34 10 -3 6 -12 10 -20 10 -10 0 -11 -5 -2
-24z"/>
<path d="M1410 1879 c0 -5 5 -7 10 -4 6 3 10 8 10 11 0 2 -4 4 -10 4 -5 0 -10
-5 -10 -11z"/>
<path d="M2650 1870 c0 -3 -3 -23 -5 -45 l-4 -40 10 33 c5 19 8 39 5 45 -2 7
-5 10 -6 7z"/>
<path d="M1798 1803 c6 -2 18 -2 25 0 6 3 1 5 -13 5 -14 0 -19 -2 -12 -5z"/>
<path d="M1976 1802 c7 -4 14 -16 17 -27 4 -15 5 -14 6 8 1 20 -4 27 -16 27
-12 0 -14 -3 -7 -8z"/>
<path d="M2510 1795 c0 -8 9 -15 20 -15 11 0 20 2 20 5 0 2 -9 9 -20 15 -16 9
-20 8 -20 -5z"/>
<path d="M2455 1790 c-30 -8 -30 -8 8 -9 20 0 37 4 37 9 0 11 -2 11 -45 0z"/>
<path d="M2405 1640 c-3 -5 -1 -10 4 -10 6 0 11 5 11 10 0 6 -2 10 -4 10 -3 0
-8 -4 -11 -10z"/>
<path d="M1060 2645 c13 -14 26 -25 28 -25 3 0 -5 11 -18 25 -13 14 -26 25
-28 25 -3 0 5 -11 18 -25z"/>
<path d="M1178 2548 c15 -15 16 -32 2 -23 -5 3 -10 2 -10 -3 0 -11 46 -22 55
-14 7 7 -35 52 -49 52 -6 0 -5 -5 2 -12z"/>
<path d="M4847 2206 c-17 -13 -17 -14 1 -18 12 -4 18 1 19 13 2 22 3 22 -20 5z"/>
<path d="M4800 2170 c-8 -5 -10 -10 -5 -10 6 0 17 5 25 10 8 5 11 10 5 10 -5
0 -17 -5 -25 -10z"/>
</g>
</svg>
